<svg fill="#FFFFFF" xmlns="http://www.w3.org/2000/svg" xmlns:xlink="http://www.w3.org/1999/xlink" version="1.1" x="0px" y="0px" viewBox="0 0 100 100" enable-background="new 0 0 100 100" xml:space="preserve"><g><path d="M89.979,9.417C83.907,3.344,75.834,0,67.246,0H32.15C23.563,0,15.489,3.344,9.417,9.417C3.344,15.489,0,23.563,0,32.15   v35.096c0,8.588,3.344,16.661,9.417,22.734c6.072,6.072,14.146,9.416,22.734,9.416h35.096c8.588,0,16.661-3.344,22.733-9.416   c6.073-6.073,9.417-14.146,9.417-22.734V32.15C99.396,23.563,96.053,15.489,89.979,9.417z M72.422,52.737L38.91,72.086   c-0.542,0.312-1.148,0.469-1.754,0.469c-0.605,0-1.211-0.156-1.754-0.469c-1.085-0.627-1.754-1.785-1.754-3.039V30.351   c0-1.254,0.668-2.413,1.754-3.039c1.085-0.627,2.423-0.627,3.509,0L72.422,46.66c1.086,0.627,1.755,1.786,1.755,3.039   C74.177,50.952,73.508,52.111,72.422,52.737z"></path></g></svg>